<?xml version="1.0" encoding="UTF-8" standalone="no"?>
<svg
   xmlns:dc="http://purl.org/dc/elements/1.1/"
   xmlns:cc="http://creativecommons.org/ns#"
   xmlns:rdf="http://www.w3.org/1999/02/22-rdf-syntax-ns#"
   xmlns:svg="http://www.w3.org/2000/svg"
   xmlns="http://www.w3.org/2000/svg"
   xml:space="preserve"
   enable-background="new 0 0 400.667 400.666"
   viewBox="0 0 400.667 400.666"
   height="400.666px"
   width="400.667px"
   y="0px"
   x="0px"
   id="Layer_2"
   version="1.1"><metadata
     id="metadata24"><rdf:RDF><cc:Work
         rdf:about=""><dc:format>image/svg+xml</dc:format><dc:type
           rdf:resource="http://purl.org/dc/dcmitype/StillImage" /></cc:Work></rdf:RDF></metadata><defs
     id="defs22" /><filter
     id="AI_Shadow_1"
     filterUnits="objectBoundingBox"><feGaussianBlur
       id="feGaussianBlur2"
       in="SourceAlpha"
       result="blur"
       stdDeviation="5" /><feOffset
       id="feOffset4"
       in="blur"
       result="offsetBlurredAlpha"
       dx="0"
       dy="0" /><feMerge
       id="feMerge10"><feMergeNode
         id="feMergeNode6"
         in="offsetBlurredAlpha" /><feMergeNode
         id="feMergeNode8"
         in="SourceGraphic" /></feMerge></filter><g
     id="g17"
     filter="url(#AI_Shadow_1)"><path
       id="path13"
       d="M200.333,33.5c-91.956,0-166.5,74.544-166.5,166.5s74.544,166.5,166.5,166.5   c91.957,0,166.5-74.544,166.5-166.5S292.29,33.5,200.333,33.5z M200.667,350.099c-82.714,0-149.767-67.053-149.767-149.767   c0-82.713,67.053-149.767,149.767-149.767s149.767,67.053,149.767,149.767C350.433,283.046,283.38,350.099,200.667,350.099z"
       fill="#232323" /><path
       id="path15"
       d="M200.333,33.5   c-91.956,0-166.5,74.544-166.5,166.5s74.544,166.5,166.5,166.5c91.957,0,166.5-74.544,166.5-166.5S292.29,33.5,200.333,33.5z    M200.667,350.099c-82.714,0-149.767-67.053-149.767-149.767c0-82.713,67.053-149.767,149.767-149.767   s149.767,67.053,149.767,149.767C350.433,283.046,283.38,350.099,200.667,350.099z"
       stroke-miterlimit="10"
       stroke-width="1.3"
       stroke="#353535"
       fill="none" /></g></svg>